G04*
G04 #@! TF.GenerationSoftware,Altium Limited,Altium Designer,23.6.0 (18)*
G04*
G04 Layer_Physical_Order=2*
G04 Layer_Color=16711680*
%FSLAX25Y25*%
%MOIN*%
G70*
G04*
G04 #@! TF.SameCoordinates,54EF131F-FBDF-42A5-9582-CEBE5E936E37*
G04*
G04*
G04 #@! TF.FilePolarity,Positive*
G04*
G01*
G75*
%ADD16C,0.05567*%
%ADD17R,0.05567X0.05567*%
%ADD26C,0.01968*%
%ADD27C,0.04724*%
%ADD28C,0.06299*%
%ADD29O,0.06000X0.12000*%
%ADD30C,0.27559*%
%ADD31C,0.05394*%
%ADD32R,0.05394X0.05394*%
%ADD33R,0.06299X0.06299*%
%ADD34C,0.03937*%
G36*
X167953Y182872D02*
X169657Y182533D01*
X170415Y182303D01*
X170303Y181815D01*
X168486Y182102D01*
X167823D01*
Y167823D01*
X182102D01*
Y168486D01*
X181815Y170303D01*
X182303Y170415D01*
X182533Y169657D01*
X182872Y167953D01*
X183042Y166223D01*
Y165354D01*
Y23622D01*
Y22753D01*
X182872Y21024D01*
X182533Y19319D01*
X182303Y18561D01*
X181815Y18673D01*
X182102Y20490D01*
Y21154D01*
X167823D01*
Y6874D01*
X168486D01*
X170303Y7162D01*
X170415Y6673D01*
X169657Y6443D01*
X167953Y6104D01*
X166223Y5934D01*
X147390D01*
X147221Y6434D01*
X147709Y6808D01*
X148379Y7682D01*
X148800Y8699D01*
X148944Y9791D01*
Y15790D01*
X148800Y16882D01*
X148379Y17899D01*
X147709Y18773D01*
X146934Y19367D01*
Y31815D01*
X147709Y32409D01*
X148379Y33282D01*
X148800Y34299D01*
X148944Y35391D01*
Y41391D01*
X148800Y42482D01*
X148379Y43499D01*
X147709Y44373D01*
X146835Y45043D01*
X145818Y45464D01*
X144727Y45608D01*
X143635Y45464D01*
X142618Y45043D01*
X141745Y44373D01*
X141075Y43499D01*
X140708Y42614D01*
X139642D01*
X133039Y49217D01*
X132323Y49696D01*
X131478Y49863D01*
X118613D01*
X114412Y54064D01*
Y64518D01*
X114244Y65363D01*
X113766Y66079D01*
X96446Y83399D01*
X96514Y83651D01*
Y84695D01*
X96244Y85703D01*
X95722Y86607D01*
X94984Y87346D01*
X94080Y87868D01*
X93071Y88138D01*
X92027D01*
X91812Y88080D01*
X90725Y89168D01*
Y98610D01*
X90811Y98676D01*
X91464Y98545D01*
X91653Y98218D01*
X92313Y97558D01*
X93120Y97092D01*
X94022Y96850D01*
X94955D01*
X95856Y97092D01*
X96664Y97558D01*
X97324Y98218D01*
X97790Y99026D01*
X98032Y99927D01*
Y100860D01*
X97790Y101761D01*
X97324Y102569D01*
X96664Y103229D01*
X95856Y103695D01*
X94955Y103937D01*
X94022D01*
X93120Y103695D01*
X92313Y103229D01*
X91653Y102569D01*
X91464Y102242D01*
X90811Y102112D01*
X90725Y102178D01*
Y104914D01*
X90557Y105759D01*
X90078Y106475D01*
X86853Y109699D01*
Y121213D01*
X87481Y121840D01*
X87947Y122648D01*
X88189Y123549D01*
Y124482D01*
X87947Y125383D01*
X87481Y126191D01*
X86821Y126851D01*
X86013Y127318D01*
X85112Y127559D01*
X84179D01*
X83278Y127318D01*
X82470Y126851D01*
X81810Y126191D01*
X81344Y125383D01*
X81102Y124482D01*
Y123549D01*
X81344Y122648D01*
X81810Y121840D01*
X82438Y121213D01*
Y110314D01*
X81976Y110123D01*
X80315Y111784D01*
Y112671D01*
X80073Y113572D01*
X79607Y114380D01*
X78947Y115040D01*
X78139Y115506D01*
X77238Y115748D01*
X76305D01*
X75404Y115506D01*
X74596Y115040D01*
X73936Y114380D01*
X73470Y113572D01*
X73228Y112671D01*
Y111738D01*
X73470Y110837D01*
X73936Y110029D01*
X74596Y109369D01*
X75404Y108903D01*
X76305Y108661D01*
X77193D01*
X80341Y105513D01*
Y87476D01*
X80115Y87346D01*
X79377Y86607D01*
X78855Y85703D01*
X78585Y84695D01*
Y83651D01*
X78855Y82643D01*
X79377Y81739D01*
X80115Y81001D01*
X81019Y80479D01*
X82027Y80209D01*
X83071D01*
X83324Y80276D01*
X101180Y62420D01*
Y44967D01*
X100406Y44373D01*
X99736Y43499D01*
X99315Y42482D01*
X99171Y41391D01*
Y35391D01*
X99315Y34299D01*
X99736Y33282D01*
X100406Y32409D01*
X101180Y31815D01*
Y19367D01*
X100406Y18773D01*
X99736Y17899D01*
X99315Y16882D01*
X99171Y15790D01*
Y9791D01*
X99315Y8699D01*
X99736Y7682D01*
X100406Y6808D01*
X100894Y6434D01*
X100724Y5934D01*
X88252D01*
X88082Y6434D01*
X88570Y6808D01*
X89240Y7682D01*
X89662Y8699D01*
X89805Y9791D01*
Y15790D01*
X89662Y16882D01*
X89240Y17899D01*
X88570Y18773D01*
X87796Y19367D01*
Y31815D01*
X88570Y32409D01*
X89240Y33282D01*
X89662Y34299D01*
X89805Y35391D01*
Y41391D01*
X89662Y42482D01*
X89240Y43499D01*
X88570Y44373D01*
X87697Y45043D01*
X86680Y45464D01*
X85588Y45608D01*
X84497Y45464D01*
X83480Y45043D01*
X82606Y44373D01*
X81936Y43499D01*
X81515Y42482D01*
X81371Y41391D01*
Y35391D01*
X81515Y34299D01*
X81936Y33282D01*
X82606Y32409D01*
X83380Y31815D01*
Y19367D01*
X82606Y18773D01*
X81936Y17899D01*
X81515Y16882D01*
X81371Y15790D01*
Y9791D01*
X81515Y8699D01*
X81936Y7682D01*
X82606Y6808D01*
X83094Y6434D01*
X82924Y5934D01*
X64713D01*
X64543Y6434D01*
X65032Y6808D01*
X65702Y7682D01*
X66123Y8699D01*
X66267Y9791D01*
Y15790D01*
X66123Y16882D01*
X65702Y17899D01*
X65032Y18773D01*
X64257Y19367D01*
Y31815D01*
X65032Y32409D01*
X65702Y33282D01*
X66123Y34299D01*
X66267Y35391D01*
Y41391D01*
X66123Y42482D01*
X65702Y43499D01*
X65032Y44373D01*
X64257Y44967D01*
Y72759D01*
X71775Y80276D01*
X72027Y80209D01*
X73071D01*
X74080Y80479D01*
X74984Y81001D01*
X75722Y81739D01*
X76244Y82643D01*
X76514Y83651D01*
Y84695D01*
X76244Y85703D01*
X75722Y86607D01*
X74984Y87346D01*
X74757Y87476D01*
Y96529D01*
X74589Y97374D01*
X74110Y98090D01*
X72405Y99795D01*
X72441Y99927D01*
Y100860D01*
X72199Y101761D01*
X71733Y102569D01*
X71073Y103229D01*
X70265Y103695D01*
X69364Y103937D01*
X68431D01*
X67530Y103695D01*
X66722Y103229D01*
X66062Y102569D01*
X65596Y101761D01*
X65354Y100860D01*
Y99927D01*
X65596Y99026D01*
X66062Y98218D01*
X66722Y97558D01*
X67530Y97092D01*
X68431Y96850D01*
X69105D01*
X70341Y95614D01*
Y87476D01*
X70115Y87346D01*
X69377Y86607D01*
X68855Y85703D01*
X68585Y84695D01*
Y83651D01*
X68652Y83399D01*
X60488Y75235D01*
X60206Y74812D01*
X59706Y74963D01*
Y81013D01*
X60168Y81204D01*
X60226Y81146D01*
X61089Y80648D01*
X62049Y80390D01*
Y84173D01*
X62549D01*
Y84673D01*
X66332D01*
X66075Y85634D01*
X65577Y86496D01*
X64872Y87201D01*
X64010Y87699D01*
X63139Y87932D01*
X62903Y88404D01*
X64110Y89611D01*
X64589Y90327D01*
X64757Y91172D01*
Y131240D01*
X64926Y131338D01*
X65512Y131924D01*
X65927Y132643D01*
X66142Y133444D01*
Y134273D01*
X65927Y135074D01*
X65512Y135792D01*
X64926Y136379D01*
X64757Y136476D01*
Y140870D01*
X64983Y141001D01*
X65722Y141739D01*
X66244Y142643D01*
X66514Y143651D01*
Y144695D01*
X66244Y145703D01*
X65722Y146607D01*
X64983Y147346D01*
X64079Y147868D01*
X63071Y148138D01*
X62027D01*
X61019Y147868D01*
X60115Y147346D01*
X59377Y146607D01*
X58855Y145703D01*
X58585Y144695D01*
Y143651D01*
X58855Y142643D01*
X59377Y141739D01*
X60115Y141001D01*
X60341Y140870D01*
Y135566D01*
X60057Y135074D01*
X59842Y134273D01*
Y133444D01*
X60057Y132643D01*
X60341Y132150D01*
Y92086D01*
X55937Y87682D01*
X55704Y87333D01*
X55060Y87269D01*
X54984Y87346D01*
X54080Y87868D01*
X53071Y88138D01*
X52027D01*
X51019Y87868D01*
X50115Y87346D01*
X49377Y86607D01*
X48855Y85703D01*
X48585Y84695D01*
Y83651D01*
X48855Y82643D01*
X49377Y81739D01*
X50115Y81001D01*
X51019Y80479D01*
X52027Y80209D01*
X53071D01*
X54080Y80479D01*
X54790Y80889D01*
X55290Y80642D01*
Y65592D01*
X55153Y65512D01*
X54566Y64926D01*
X54152Y64208D01*
X53937Y63407D01*
Y62577D01*
X54152Y61776D01*
X54566Y61058D01*
X55153Y60472D01*
X55290Y60392D01*
Y53585D01*
X46579Y44873D01*
X46358Y45043D01*
X45341Y45464D01*
X44250Y45608D01*
X43158Y45464D01*
X42141Y45043D01*
X41268Y44373D01*
X40597Y43499D01*
X40176Y42482D01*
X40032Y41391D01*
Y35391D01*
X40176Y34299D01*
X40597Y33282D01*
X41268Y32409D01*
X42042Y31815D01*
Y19367D01*
X41268Y18773D01*
X40597Y17899D01*
X40176Y16882D01*
X40032Y15790D01*
Y9791D01*
X40176Y8699D01*
X40597Y7682D01*
X41268Y6808D01*
X41756Y6434D01*
X41586Y5934D01*
X22753D01*
X21023Y6104D01*
X19319Y6443D01*
X18561Y6673D01*
X18673Y7162D01*
X20490Y6874D01*
X21154D01*
Y21154D01*
X6874D01*
Y20490D01*
X7162Y18673D01*
X6673Y18561D01*
X6443Y19319D01*
X6104Y21023D01*
X5934Y22753D01*
Y23622D01*
Y165354D01*
Y166223D01*
X6104Y167953D01*
X6443Y169657D01*
X6673Y170415D01*
X7162Y170303D01*
X6874Y168486D01*
Y167823D01*
X21154D01*
Y182102D01*
X20490D01*
X18673Y181815D01*
X18561Y182303D01*
X19319Y182533D01*
X21024Y182872D01*
X22753Y183042D01*
X166223D01*
X167953Y182872D01*
D02*
G37*
G36*
X137166Y38845D02*
X137883Y38367D01*
X138728Y38199D01*
X140510D01*
Y35391D01*
X140653Y34299D01*
X141075Y33282D01*
X141745Y32409D01*
X142519Y31815D01*
Y19367D01*
X141745Y18773D01*
X141075Y17899D01*
X140653Y16882D01*
X140510Y15790D01*
Y9791D01*
X140653Y8699D01*
X141075Y7682D01*
X141745Y6808D01*
X142233Y6434D01*
X142063Y5934D01*
X129590D01*
X129421Y6434D01*
X129909Y6808D01*
X130579Y7682D01*
X131000Y8699D01*
X131144Y9791D01*
Y15790D01*
X131000Y16882D01*
X130579Y17899D01*
X129909Y18773D01*
X129135Y19367D01*
Y31815D01*
X129909Y32409D01*
X130579Y33282D01*
X131000Y34299D01*
X131144Y35391D01*
Y41391D01*
X131000Y42482D01*
X130579Y43499D01*
X129909Y44373D01*
X129159Y44948D01*
X129308Y45448D01*
X130564D01*
X137166Y38845D01*
D02*
G37*
G36*
X86309Y103999D02*
Y88253D01*
X86477Y87408D01*
X86956Y86692D01*
X88662Y84985D01*
X88585Y84695D01*
Y83651D01*
X88855Y82643D01*
X89377Y81739D01*
X90115Y81001D01*
X91019Y80479D01*
X92027Y80209D01*
X93071D01*
X93324Y80276D01*
X109997Y63603D01*
Y53150D01*
X110165Y52305D01*
X110644Y51588D01*
X116137Y46095D01*
X116854Y45616D01*
X117699Y45448D01*
X124546D01*
X124695Y44948D01*
X123945Y44373D01*
X123275Y43499D01*
X122853Y42482D01*
X122710Y41391D01*
Y35391D01*
X122853Y34299D01*
X123275Y33282D01*
X123945Y32409D01*
X124719Y31815D01*
Y19367D01*
X123945Y18773D01*
X123275Y17899D01*
X122853Y16882D01*
X122710Y15790D01*
Y9791D01*
X122853Y8699D01*
X123275Y7682D01*
X123945Y6808D01*
X124433Y6434D01*
X124263Y5934D01*
X106052D01*
X105882Y6434D01*
X106370Y6808D01*
X107040Y7682D01*
X107462Y8699D01*
X107605Y9791D01*
Y15790D01*
X107462Y16882D01*
X107040Y17899D01*
X106370Y18773D01*
X105596Y19367D01*
Y31815D01*
X106370Y32409D01*
X107040Y33282D01*
X107462Y34299D01*
X107605Y35391D01*
Y41391D01*
X107462Y42482D01*
X107040Y43499D01*
X106370Y44373D01*
X105596Y44967D01*
Y63334D01*
X105428Y64179D01*
X104949Y64895D01*
X86446Y83399D01*
X86514Y83651D01*
Y84695D01*
X86244Y85703D01*
X85722Y86607D01*
X84983Y87346D01*
X84757Y87476D01*
Y104898D01*
X85219Y105089D01*
X86309Y103999D01*
D02*
G37*
G36*
X59842Y51381D02*
Y44967D01*
X59068Y44373D01*
X58397Y43499D01*
X57976Y42482D01*
X57832Y41391D01*
Y35391D01*
X57976Y34299D01*
X58397Y33282D01*
X59068Y32409D01*
X59842Y31815D01*
Y19367D01*
X59068Y18773D01*
X58397Y17899D01*
X57976Y16882D01*
X57832Y15790D01*
Y9791D01*
X57976Y8699D01*
X58397Y7682D01*
X59068Y6808D01*
X59556Y6434D01*
X59386Y5934D01*
X46913D01*
X46744Y6434D01*
X47232Y6808D01*
X47902Y7682D01*
X48323Y8699D01*
X48467Y9791D01*
Y15790D01*
X48323Y16882D01*
X47902Y17899D01*
X47232Y18773D01*
X46457Y19367D01*
Y31815D01*
X47232Y32409D01*
X47902Y33282D01*
X48323Y34299D01*
X48467Y35391D01*
Y40517D01*
X59059Y51109D01*
X59342Y51532D01*
X59842Y51381D01*
D02*
G37*
%LPC*%
G36*
X166823Y182102D02*
X166160D01*
X163862Y181738D01*
X161650Y181020D01*
X159577Y179963D01*
X157695Y178596D01*
X156050Y176951D01*
X154682Y175069D01*
X153626Y172996D01*
X152907Y170784D01*
X152543Y168486D01*
Y167823D01*
X166823D01*
Y182102D01*
D02*
G37*
G36*
X22817D02*
X22153D01*
Y167823D01*
X36433D01*
Y168486D01*
X36069Y170784D01*
X35350Y172996D01*
X34294Y175069D01*
X32927Y176951D01*
X31282Y178596D01*
X29400Y179963D01*
X27327Y181020D01*
X25114Y181738D01*
X22817Y182102D01*
D02*
G37*
G36*
X109720Y165567D02*
X109673D01*
Y161917D01*
X113323D01*
Y161964D01*
X113040Y163019D01*
X112494Y163965D01*
X111721Y164738D01*
X110775Y165284D01*
X109720Y165567D01*
D02*
G37*
G36*
X68381D02*
X68335D01*
Y161917D01*
X71984D01*
Y161964D01*
X71702Y163019D01*
X71155Y163965D01*
X70383Y164738D01*
X69436Y165284D01*
X68381Y165567D01*
D02*
G37*
G36*
X67335D02*
X67288D01*
X66233Y165284D01*
X65287Y164738D01*
X64514Y163965D01*
X63968Y163019D01*
X63685Y161964D01*
Y161917D01*
X67335D01*
Y165567D01*
D02*
G37*
G36*
X108673D02*
X108627D01*
X107571Y165284D01*
X106625Y164738D01*
X105853Y163965D01*
X105306Y163019D01*
X105024Y161964D01*
Y161917D01*
X108673D01*
Y165567D01*
D02*
G37*
G36*
X113323Y160917D02*
X109673D01*
Y157268D01*
X109720D01*
X110775Y157551D01*
X111721Y158097D01*
X112494Y158869D01*
X113040Y159816D01*
X113323Y160871D01*
Y160917D01*
D02*
G37*
G36*
X108673D02*
X105024D01*
Y160871D01*
X105306Y159816D01*
X105853Y158869D01*
X106625Y158097D01*
X107571Y157551D01*
X108627Y157268D01*
X108673D01*
Y160917D01*
D02*
G37*
G36*
X71984D02*
X68335D01*
Y157268D01*
X68381D01*
X69436Y157551D01*
X70383Y158097D01*
X71155Y158869D01*
X71702Y159816D01*
X71984Y160871D01*
Y160917D01*
D02*
G37*
G36*
X67335D02*
X63685D01*
Y160871D01*
X63968Y159816D01*
X64514Y158869D01*
X65287Y158097D01*
X66233Y157551D01*
X67288Y157268D01*
X67335D01*
Y160917D01*
D02*
G37*
G36*
X123504Y165748D02*
X114842D01*
Y157087D01*
X123504D01*
Y165748D01*
D02*
G37*
G36*
X82165D02*
X73504D01*
Y157087D01*
X82165D01*
Y165748D01*
D02*
G37*
G36*
X182102Y166823D02*
X167823D01*
Y152543D01*
X168486D01*
X170784Y152907D01*
X172996Y153626D01*
X175069Y154682D01*
X176951Y156050D01*
X178596Y157695D01*
X179963Y159577D01*
X181020Y161650D01*
X181738Y163862D01*
X182102Y166160D01*
Y166823D01*
D02*
G37*
G36*
X166823D02*
X152543D01*
Y166160D01*
X152907Y163862D01*
X153626Y161650D01*
X154682Y159577D01*
X156050Y157695D01*
X157695Y156050D01*
X159577Y154682D01*
X161650Y153626D01*
X163862Y152907D01*
X166160Y152543D01*
X166823D01*
Y166823D01*
D02*
G37*
G36*
X36433D02*
X22153D01*
Y152543D01*
X22817D01*
X25114Y152907D01*
X27327Y153626D01*
X29400Y154682D01*
X31282Y156050D01*
X32927Y157695D01*
X34294Y159577D01*
X35350Y161650D01*
X36069Y163862D01*
X36433Y166160D01*
Y166823D01*
D02*
G37*
G36*
X21154D02*
X6874D01*
Y166160D01*
X7238Y163862D01*
X7957Y161650D01*
X9013Y159577D01*
X10380Y157695D01*
X12025Y156050D01*
X13907Y154682D01*
X15980Y153626D01*
X18193Y152907D01*
X20490Y152543D01*
X21154D01*
Y166823D01*
D02*
G37*
G36*
X43049Y147956D02*
Y144673D01*
X46332D01*
X46075Y145634D01*
X45577Y146496D01*
X44872Y147201D01*
X44010Y147699D01*
X43049Y147956D01*
D02*
G37*
G36*
X42049D02*
X41089Y147699D01*
X40226Y147201D01*
X39522Y146496D01*
X39024Y145634D01*
X38766Y144673D01*
X42049D01*
Y147956D01*
D02*
G37*
G36*
X46332Y143673D02*
X43049D01*
Y140390D01*
X44010Y140648D01*
X44872Y141146D01*
X45577Y141850D01*
X46075Y142713D01*
X46332Y143673D01*
D02*
G37*
G36*
X42049D02*
X38766D01*
X39024Y142713D01*
X39522Y141850D01*
X40226Y141146D01*
X41089Y140648D01*
X42049Y140390D01*
Y143673D01*
D02*
G37*
G36*
X173071Y148138D02*
X172027D01*
X171019Y147868D01*
X170115Y147346D01*
X169377Y146607D01*
X168855Y145703D01*
X168585Y144695D01*
Y143651D01*
X168855Y142643D01*
X169377Y141739D01*
X170115Y141001D01*
X171019Y140479D01*
X172027Y140209D01*
X173071D01*
X174080Y140479D01*
X174984Y141001D01*
X175722Y141739D01*
X176244Y142643D01*
X176514Y143651D01*
Y144695D01*
X176244Y145703D01*
X175722Y146607D01*
X174984Y147346D01*
X174080Y147868D01*
X173071Y148138D01*
D02*
G37*
G36*
X163071D02*
X162027D01*
X161019Y147868D01*
X160115Y147346D01*
X159377Y146607D01*
X158855Y145703D01*
X158585Y144695D01*
Y143651D01*
X158855Y142643D01*
X159377Y141739D01*
X160115Y141001D01*
X161019Y140479D01*
X162027Y140209D01*
X163071D01*
X164079Y140479D01*
X164983Y141001D01*
X165722Y141739D01*
X166244Y142643D01*
X166514Y143651D01*
Y144695D01*
X166244Y145703D01*
X165722Y146607D01*
X164983Y147346D01*
X164079Y147868D01*
X163071Y148138D01*
D02*
G37*
G36*
X153071D02*
X152027D01*
X151019Y147868D01*
X150115Y147346D01*
X149377Y146607D01*
X148855Y145703D01*
X148585Y144695D01*
Y143651D01*
X148855Y142643D01*
X149377Y141739D01*
X150115Y141001D01*
X151019Y140479D01*
X152027Y140209D01*
X153071D01*
X154079Y140479D01*
X154983Y141001D01*
X155722Y141739D01*
X156244Y142643D01*
X156514Y143651D01*
Y144695D01*
X156244Y145703D01*
X155722Y146607D01*
X154983Y147346D01*
X154079Y147868D01*
X153071Y148138D01*
D02*
G37*
G36*
X143071D02*
X142027D01*
X141019Y147868D01*
X140115Y147346D01*
X139377Y146607D01*
X138855Y145703D01*
X138585Y144695D01*
Y143651D01*
X138855Y142643D01*
X139377Y141739D01*
X140115Y141001D01*
X141019Y140479D01*
X142027Y140209D01*
X143071D01*
X144079Y140479D01*
X144983Y141001D01*
X145722Y141739D01*
X146244Y142643D01*
X146514Y143651D01*
Y144695D01*
X146244Y145703D01*
X145722Y146607D01*
X144983Y147346D01*
X144079Y147868D01*
X143071Y148138D01*
D02*
G37*
G36*
X133071D02*
X132027D01*
X131019Y147868D01*
X130115Y147346D01*
X129377Y146607D01*
X128855Y145703D01*
X128585Y144695D01*
Y143651D01*
X128855Y142643D01*
X129377Y141739D01*
X130115Y141001D01*
X131019Y140479D01*
X132027Y140209D01*
X133071D01*
X134080Y140479D01*
X134984Y141001D01*
X135722Y141739D01*
X136244Y142643D01*
X136514Y143651D01*
Y144695D01*
X136244Y145703D01*
X135722Y146607D01*
X134984Y147346D01*
X134080Y147868D01*
X133071Y148138D01*
D02*
G37*
G36*
X123071D02*
X122027D01*
X121019Y147868D01*
X120115Y147346D01*
X119377Y146607D01*
X118855Y145703D01*
X118585Y144695D01*
Y143651D01*
X118855Y142643D01*
X119377Y141739D01*
X120115Y141001D01*
X121019Y140479D01*
X122027Y140209D01*
X123071D01*
X124080Y140479D01*
X124984Y141001D01*
X125722Y141739D01*
X126244Y142643D01*
X126514Y143651D01*
Y144695D01*
X126244Y145703D01*
X125722Y146607D01*
X124984Y147346D01*
X124080Y147868D01*
X123071Y148138D01*
D02*
G37*
G36*
X113071D02*
X112027D01*
X111019Y147868D01*
X110115Y147346D01*
X109377Y146607D01*
X108855Y145703D01*
X108585Y144695D01*
Y143651D01*
X108855Y142643D01*
X109377Y141739D01*
X110115Y141001D01*
X111019Y140479D01*
X112027Y140209D01*
X113071D01*
X114079Y140479D01*
X114983Y141001D01*
X115722Y141739D01*
X116244Y142643D01*
X116514Y143651D01*
Y144695D01*
X116244Y145703D01*
X115722Y146607D01*
X114983Y147346D01*
X114079Y147868D01*
X113071Y148138D01*
D02*
G37*
G36*
X103071D02*
X102027D01*
X101019Y147868D01*
X100115Y147346D01*
X99377Y146607D01*
X98855Y145703D01*
X98585Y144695D01*
Y143651D01*
X98855Y142643D01*
X99377Y141739D01*
X100115Y141001D01*
X101019Y140479D01*
X102027Y140209D01*
X103071D01*
X104079Y140479D01*
X104983Y141001D01*
X105722Y141739D01*
X106244Y142643D01*
X106514Y143651D01*
Y144695D01*
X106244Y145703D01*
X105722Y146607D01*
X104983Y147346D01*
X104079Y147868D01*
X103071Y148138D01*
D02*
G37*
G36*
X93071D02*
X92027D01*
X91019Y147868D01*
X90115Y147346D01*
X89377Y146607D01*
X88855Y145703D01*
X88585Y144695D01*
Y143651D01*
X88855Y142643D01*
X89377Y141739D01*
X90115Y141001D01*
X91019Y140479D01*
X92027Y140209D01*
X93071D01*
X94080Y140479D01*
X94984Y141001D01*
X95722Y141739D01*
X96244Y142643D01*
X96514Y143651D01*
Y144695D01*
X96244Y145703D01*
X95722Y146607D01*
X94984Y147346D01*
X94080Y147868D01*
X93071Y148138D01*
D02*
G37*
G36*
X83071D02*
X82027D01*
X81019Y147868D01*
X80115Y147346D01*
X79377Y146607D01*
X78855Y145703D01*
X78585Y144695D01*
Y143651D01*
X78855Y142643D01*
X79377Y141739D01*
X80115Y141001D01*
X81019Y140479D01*
X82027Y140209D01*
X83071D01*
X84079Y140479D01*
X84983Y141001D01*
X85722Y141739D01*
X86244Y142643D01*
X86514Y143651D01*
Y144695D01*
X86244Y145703D01*
X85722Y146607D01*
X84983Y147346D01*
X84079Y147868D01*
X83071Y148138D01*
D02*
G37*
G36*
X73071D02*
X72027D01*
X71019Y147868D01*
X70115Y147346D01*
X69377Y146607D01*
X68855Y145703D01*
X68585Y144695D01*
Y143651D01*
X68855Y142643D01*
X69377Y141739D01*
X70115Y141001D01*
X71019Y140479D01*
X72027Y140209D01*
X73071D01*
X74080Y140479D01*
X74984Y141001D01*
X75722Y141739D01*
X76244Y142643D01*
X76514Y143651D01*
Y144695D01*
X76244Y145703D01*
X75722Y146607D01*
X74984Y147346D01*
X74080Y147868D01*
X73071Y148138D01*
D02*
G37*
G36*
X53071D02*
X52027D01*
X51019Y147868D01*
X50115Y147346D01*
X49377Y146607D01*
X48855Y145703D01*
X48585Y144695D01*
Y143651D01*
X48855Y142643D01*
X49377Y141739D01*
X50115Y141001D01*
X51019Y140479D01*
X52027Y140209D01*
X53071D01*
X54080Y140479D01*
X54984Y141001D01*
X55722Y141739D01*
X56244Y142643D01*
X56514Y143651D01*
Y144695D01*
X56244Y145703D01*
X55722Y146607D01*
X54984Y147346D01*
X54080Y147868D01*
X53071Y148138D01*
D02*
G37*
G36*
X33071D02*
X32027D01*
X31019Y147868D01*
X30115Y147346D01*
X29377Y146607D01*
X28855Y145703D01*
X28585Y144695D01*
Y143651D01*
X28855Y142643D01*
X29377Y141739D01*
X30115Y141001D01*
X31019Y140479D01*
X32027Y140209D01*
X33071D01*
X34080Y140479D01*
X34984Y141001D01*
X35722Y141739D01*
X36244Y142643D01*
X36514Y143651D01*
Y144695D01*
X36244Y145703D01*
X35722Y146607D01*
X34984Y147346D01*
X34080Y147868D01*
X33071Y148138D01*
D02*
G37*
G36*
X41839Y127363D02*
Y124516D01*
X44685D01*
X44472Y125313D01*
X44029Y126080D01*
X43403Y126706D01*
X42636Y127149D01*
X41839Y127363D01*
D02*
G37*
G36*
X40839D02*
X40041Y127149D01*
X39274Y126706D01*
X38648Y126080D01*
X38206Y125313D01*
X37992Y124516D01*
X40839D01*
Y127363D01*
D02*
G37*
G36*
X44685Y123516D02*
X41839D01*
Y120669D01*
X42636Y120883D01*
X43403Y121325D01*
X44029Y121951D01*
X44472Y122718D01*
X44685Y123516D01*
D02*
G37*
G36*
X40839D02*
X37992D01*
X38206Y122718D01*
X38648Y121951D01*
X39274Y121325D01*
X40041Y120883D01*
X40839Y120669D01*
Y123516D01*
D02*
G37*
G36*
X154010Y127559D02*
X153077D01*
X152176Y127318D01*
X151368Y126851D01*
X150708Y126191D01*
X150241Y125383D01*
X150000Y124482D01*
Y123549D01*
X150241Y122648D01*
X150708Y121840D01*
X151368Y121180D01*
X152176Y120714D01*
X153077Y120473D01*
X154010D01*
X154911Y120714D01*
X155719Y121180D01*
X156379Y121840D01*
X156845Y122648D01*
X157087Y123549D01*
Y124482D01*
X156845Y125383D01*
X156379Y126191D01*
X155719Y126851D01*
X154911Y127318D01*
X154010Y127559D01*
D02*
G37*
G36*
X110703D02*
X109770D01*
X108869Y127318D01*
X108061Y126851D01*
X107401Y126191D01*
X106934Y125383D01*
X106693Y124482D01*
Y123549D01*
X106934Y122648D01*
X107401Y121840D01*
X108061Y121180D01*
X108869Y120714D01*
X109770Y120473D01*
X110703D01*
X111604Y120714D01*
X112412Y121180D01*
X113072Y121840D01*
X113538Y122648D01*
X113779Y123549D01*
Y124482D01*
X113538Y125383D01*
X113072Y126191D01*
X112412Y126851D01*
X111604Y127318D01*
X110703Y127559D01*
D02*
G37*
G36*
X33965Y115551D02*
Y112705D01*
X36811D01*
X36598Y113503D01*
X36155Y114269D01*
X35529Y114895D01*
X34762Y115338D01*
X33965Y115551D01*
D02*
G37*
G36*
X32965D02*
X32167Y115338D01*
X31400Y114895D01*
X30774Y114269D01*
X30332Y113503D01*
X30118Y112705D01*
X32965D01*
Y115551D01*
D02*
G37*
G36*
X36811Y111705D02*
X33965D01*
Y108858D01*
X34762Y109072D01*
X35529Y109514D01*
X36155Y110140D01*
X36598Y110907D01*
X36811Y111705D01*
D02*
G37*
G36*
X32965D02*
X30118D01*
X30332Y110907D01*
X30774Y110140D01*
X31400Y109514D01*
X32167Y109072D01*
X32965Y108858D01*
Y111705D01*
D02*
G37*
G36*
X146136Y115748D02*
X145203D01*
X144302Y115506D01*
X143494Y115040D01*
X142834Y114380D01*
X142367Y113572D01*
X142126Y112671D01*
Y111738D01*
X142367Y110837D01*
X142834Y110029D01*
X143494Y109369D01*
X144302Y108903D01*
X145203Y108661D01*
X146136D01*
X147037Y108903D01*
X147845Y109369D01*
X148505Y110029D01*
X148971Y110837D01*
X149213Y111738D01*
Y112671D01*
X148971Y113572D01*
X148505Y114380D01*
X147845Y115040D01*
X147037Y115506D01*
X146136Y115748D01*
D02*
G37*
G36*
X102829D02*
X101896D01*
X100995Y115506D01*
X100187Y115040D01*
X99527Y114380D01*
X99060Y113572D01*
X98819Y112671D01*
Y111738D01*
X99060Y110837D01*
X99527Y110029D01*
X100187Y109369D01*
X100995Y108903D01*
X101896Y108661D01*
X102829D01*
X103730Y108903D01*
X104538Y109369D01*
X105198Y110029D01*
X105664Y110837D01*
X105905Y111738D01*
Y112671D01*
X105664Y113572D01*
X105198Y114380D01*
X104538Y115040D01*
X103730Y115506D01*
X102829Y115748D01*
D02*
G37*
G36*
X26091Y103741D02*
Y100894D01*
X28937D01*
X28724Y101691D01*
X28281Y102458D01*
X27655Y103084D01*
X26888Y103527D01*
X26091Y103741D01*
D02*
G37*
G36*
X25091D02*
X24293Y103527D01*
X23526Y103084D01*
X22900Y102458D01*
X22457Y101691D01*
X22244Y100894D01*
X25091D01*
Y103741D01*
D02*
G37*
G36*
X28937Y99894D02*
X26091D01*
Y97047D01*
X26888Y97261D01*
X27655Y97703D01*
X28281Y98329D01*
X28724Y99096D01*
X28937Y99894D01*
D02*
G37*
G36*
X25091D02*
X22244D01*
X22457Y99096D01*
X22900Y98329D01*
X23526Y97703D01*
X24293Y97261D01*
X25091Y97047D01*
Y99894D01*
D02*
G37*
G36*
X138262Y103937D02*
X137329D01*
X136428Y103695D01*
X135620Y103229D01*
X134960Y102569D01*
X134493Y101761D01*
X134252Y100860D01*
Y99927D01*
X134493Y99026D01*
X134960Y98218D01*
X135620Y97558D01*
X136428Y97092D01*
X137329Y96850D01*
X138262D01*
X139163Y97092D01*
X139971Y97558D01*
X140631Y98218D01*
X141097Y99026D01*
X141339Y99927D01*
Y100860D01*
X141097Y101761D01*
X140631Y102569D01*
X139971Y103229D01*
X139163Y103695D01*
X138262Y103937D01*
D02*
G37*
G36*
X66332Y83673D02*
X63049D01*
Y80390D01*
X64010Y80648D01*
X64872Y81146D01*
X65577Y81850D01*
X66075Y82713D01*
X66332Y83673D01*
D02*
G37*
G36*
X173071Y88138D02*
X172027D01*
X171019Y87868D01*
X170115Y87346D01*
X169377Y86607D01*
X168855Y85703D01*
X168585Y84695D01*
Y83651D01*
X168855Y82643D01*
X169377Y81739D01*
X170115Y81001D01*
X171019Y80479D01*
X172027Y80209D01*
X173071D01*
X174080Y80479D01*
X174984Y81001D01*
X175722Y81739D01*
X176244Y82643D01*
X176514Y83651D01*
Y84695D01*
X176244Y85703D01*
X175722Y86607D01*
X174984Y87346D01*
X174080Y87868D01*
X173071Y88138D01*
D02*
G37*
G36*
X163071D02*
X162027D01*
X161019Y87868D01*
X160115Y87346D01*
X159377Y86607D01*
X158855Y85703D01*
X158585Y84695D01*
Y83651D01*
X158855Y82643D01*
X159377Y81739D01*
X160115Y81001D01*
X161019Y80479D01*
X162027Y80209D01*
X163071D01*
X164079Y80479D01*
X164983Y81001D01*
X165722Y81739D01*
X166244Y82643D01*
X166514Y83651D01*
Y84695D01*
X166244Y85703D01*
X165722Y86607D01*
X164983Y87346D01*
X164079Y87868D01*
X163071Y88138D01*
D02*
G37*
G36*
X153071D02*
X152027D01*
X151019Y87868D01*
X150115Y87346D01*
X149377Y86607D01*
X148855Y85703D01*
X148585Y84695D01*
Y83651D01*
X148855Y82643D01*
X149377Y81739D01*
X150115Y81001D01*
X151019Y80479D01*
X152027Y80209D01*
X153071D01*
X154079Y80479D01*
X154983Y81001D01*
X155722Y81739D01*
X156244Y82643D01*
X156514Y83651D01*
Y84695D01*
X156244Y85703D01*
X155722Y86607D01*
X154983Y87346D01*
X154079Y87868D01*
X153071Y88138D01*
D02*
G37*
G36*
X143071D02*
X142027D01*
X141019Y87868D01*
X140115Y87346D01*
X139377Y86607D01*
X138855Y85703D01*
X138585Y84695D01*
Y83651D01*
X138855Y82643D01*
X139377Y81739D01*
X140115Y81001D01*
X141019Y80479D01*
X142027Y80209D01*
X143071D01*
X144079Y80479D01*
X144983Y81001D01*
X145722Y81739D01*
X146244Y82643D01*
X146514Y83651D01*
Y84695D01*
X146244Y85703D01*
X145722Y86607D01*
X144983Y87346D01*
X144079Y87868D01*
X143071Y88138D01*
D02*
G37*
G36*
X113071D02*
X112027D01*
X111019Y87868D01*
X110115Y87346D01*
X109377Y86607D01*
X108855Y85703D01*
X108585Y84695D01*
Y83651D01*
X108855Y82643D01*
X109377Y81739D01*
X110115Y81001D01*
X111019Y80479D01*
X112027Y80209D01*
X113071D01*
X114079Y80479D01*
X114983Y81001D01*
X115722Y81739D01*
X116244Y82643D01*
X116514Y83651D01*
Y84695D01*
X116244Y85703D01*
X115722Y86607D01*
X114983Y87346D01*
X114079Y87868D01*
X113071Y88138D01*
D02*
G37*
G36*
X103071D02*
X102027D01*
X101019Y87868D01*
X100115Y87346D01*
X99377Y86607D01*
X98855Y85703D01*
X98585Y84695D01*
Y83651D01*
X98855Y82643D01*
X99377Y81739D01*
X100115Y81001D01*
X101019Y80479D01*
X102027Y80209D01*
X103071D01*
X104079Y80479D01*
X104983Y81001D01*
X105722Y81739D01*
X106244Y82643D01*
X106514Y83651D01*
Y84695D01*
X106244Y85703D01*
X105722Y86607D01*
X104983Y87346D01*
X104079Y87868D01*
X103071Y88138D01*
D02*
G37*
G36*
X43071D02*
X42027D01*
X41019Y87868D01*
X40115Y87346D01*
X39377Y86607D01*
X38855Y85703D01*
X38585Y84695D01*
Y83651D01*
X38855Y82643D01*
X39377Y81739D01*
X40115Y81001D01*
X41019Y80479D01*
X42027Y80209D01*
X43071D01*
X44080Y80479D01*
X44984Y81001D01*
X45722Y81739D01*
X46244Y82643D01*
X46514Y83651D01*
Y84695D01*
X46244Y85703D01*
X45722Y86607D01*
X44984Y87346D01*
X44080Y87868D01*
X43071Y88138D01*
D02*
G37*
G36*
X36514D02*
X28585D01*
Y80209D01*
X36514D01*
Y88138D01*
D02*
G37*
G36*
X124586Y70354D02*
X123446D01*
X122344Y70059D01*
X121357Y69489D01*
X120550Y68683D01*
X119980Y67695D01*
X119685Y66594D01*
Y65453D01*
X119980Y64352D01*
X120550Y63364D01*
X121357Y62558D01*
X122344Y61988D01*
X123446Y61693D01*
X124586D01*
X125687Y61988D01*
X126675Y62558D01*
X127481Y63364D01*
X128051Y64352D01*
X128347Y65453D01*
Y66594D01*
X128051Y67695D01*
X127481Y68683D01*
X126675Y69489D01*
X125687Y70059D01*
X124586Y70354D01*
D02*
G37*
G36*
X77342D02*
X76201D01*
X75100Y70059D01*
X74112Y69489D01*
X73306Y68683D01*
X72736Y67695D01*
X72441Y66594D01*
Y65453D01*
X72736Y64352D01*
X73306Y63364D01*
X74112Y62558D01*
X75100Y61988D01*
X76201Y61693D01*
X77342D01*
X78443Y61988D01*
X79431Y62558D01*
X80237Y63364D01*
X80807Y64352D01*
X81102Y65453D01*
Y66594D01*
X80807Y67695D01*
X80237Y68683D01*
X79431Y69489D01*
X78443Y70059D01*
X77342Y70354D01*
D02*
G37*
G36*
X30098D02*
X28957D01*
X27856Y70059D01*
X26869Y69489D01*
X26062Y68683D01*
X25492Y67695D01*
X25197Y66594D01*
Y65453D01*
X25492Y64352D01*
X26062Y63364D01*
X26869Y62558D01*
X27856Y61988D01*
X28957Y61693D01*
X30098D01*
X31199Y61988D01*
X32187Y62558D01*
X32993Y63364D01*
X33563Y64352D01*
X33858Y65453D01*
Y66594D01*
X33563Y67695D01*
X32993Y68683D01*
X32187Y69489D01*
X31199Y70059D01*
X30098Y70354D01*
D02*
G37*
G36*
X147980Y64717D02*
Y61524D01*
X151174D01*
X150925Y62450D01*
X150438Y63293D01*
X149750Y63982D01*
X148907Y64468D01*
X147980Y64717D01*
D02*
G37*
G36*
X146980Y64717D02*
X146053Y64468D01*
X145210Y63982D01*
X144522Y63293D01*
X144035Y62450D01*
X143787Y61524D01*
X146980D01*
Y64717D01*
D02*
G37*
G36*
Y60524D02*
X143787D01*
X144035Y59597D01*
X144522Y58754D01*
X145210Y58065D01*
X146053Y57579D01*
X146980Y57330D01*
Y60524D01*
D02*
G37*
G36*
X151174D02*
X147980D01*
Y57330D01*
X148907Y57579D01*
X149750Y58065D01*
X150438Y58754D01*
X150925Y59597D01*
X151174Y60524D01*
D02*
G37*
G36*
X171358Y64902D02*
X163602D01*
Y57146D01*
X171358D01*
Y64902D01*
D02*
G37*
G36*
X90966Y117323D02*
X90136D01*
X89336Y117108D01*
X88617Y116693D01*
X88031Y116107D01*
X87616Y115389D01*
X87402Y114588D01*
Y113759D01*
X87616Y112958D01*
X88031Y112239D01*
X88617Y111653D01*
X89336Y111238D01*
X90136Y111024D01*
X90579D01*
X102965Y98637D01*
X103681Y98159D01*
X104526Y97990D01*
X112609D01*
X121990Y88609D01*
X121812Y88080D01*
X121019Y87868D01*
X120115Y87346D01*
X119377Y86607D01*
X118855Y85703D01*
X118585Y84695D01*
Y83651D01*
X118855Y82643D01*
X119377Y81739D01*
X120115Y81001D01*
X121019Y80479D01*
X122027Y80209D01*
X123071D01*
X124080Y80479D01*
X124984Y81001D01*
X125060Y81077D01*
X125704Y81014D01*
X125937Y80665D01*
X136261Y70340D01*
X136978Y69862D01*
X137823Y69693D01*
X145688D01*
X153654Y61727D01*
X153602Y61534D01*
Y60513D01*
X153867Y59527D01*
X154377Y58643D01*
X155099Y57920D01*
X155983Y57410D01*
X156970Y57146D01*
X157991D01*
X158977Y57410D01*
X159861Y57920D01*
X160583Y58643D01*
X161094Y59527D01*
X161358Y60513D01*
Y61534D01*
X161094Y62520D01*
X160583Y63405D01*
X159861Y64127D01*
X158977Y64637D01*
X157991Y64902D01*
X156970D01*
X156776Y64850D01*
X148164Y73462D01*
X147448Y73941D01*
X146603Y74109D01*
X138737D01*
X133108Y79738D01*
X133287Y80266D01*
X134080Y80479D01*
X134984Y81001D01*
X135722Y81739D01*
X136244Y82643D01*
X136514Y83651D01*
Y84695D01*
X136244Y85703D01*
X135722Y86607D01*
X134984Y87346D01*
X134080Y87868D01*
X133071Y88138D01*
X132027D01*
X131019Y87868D01*
X130115Y87346D01*
X129980Y87211D01*
X129375Y87312D01*
X129059Y87784D01*
X115084Y101759D01*
X114368Y102238D01*
X113523Y102406D01*
X105441D01*
X93701Y114146D01*
Y114588D01*
X93486Y115389D01*
X93072Y116107D01*
X92485Y116693D01*
X91767Y117108D01*
X90966Y117323D01*
D02*
G37*
G36*
X30074Y60173D02*
X30028D01*
Y56524D01*
X33677D01*
Y56570D01*
X33394Y57625D01*
X32848Y58571D01*
X32076Y59344D01*
X31129Y59890D01*
X30074Y60173D01*
D02*
G37*
G36*
X29028D02*
X28981D01*
X27926Y59890D01*
X26980Y59344D01*
X26207Y58571D01*
X25661Y57625D01*
X25378Y56570D01*
Y56524D01*
X29028D01*
Y60173D01*
D02*
G37*
G36*
X77318D02*
X77272D01*
Y56524D01*
X80921D01*
Y56570D01*
X80638Y57625D01*
X80092Y58571D01*
X79320Y59344D01*
X78373Y59890D01*
X77318Y60173D01*
D02*
G37*
G36*
X76272D02*
X76225D01*
X75170Y59890D01*
X74224Y59344D01*
X73451Y58571D01*
X72905Y57625D01*
X72622Y56570D01*
Y56524D01*
X76272D01*
Y60173D01*
D02*
G37*
G36*
X124562D02*
X124516D01*
Y56524D01*
X128165D01*
Y56570D01*
X127883Y57625D01*
X127336Y58571D01*
X126564Y59344D01*
X125617Y59890D01*
X124562Y60173D01*
D02*
G37*
G36*
X123516D02*
X123469D01*
X122414Y59890D01*
X121468Y59344D01*
X120695Y58571D01*
X120149Y57625D01*
X119866Y56570D01*
Y56524D01*
X123516D01*
Y60173D01*
D02*
G37*
G36*
X128165Y55524D02*
X124516D01*
Y51874D01*
X124562D01*
X125617Y52157D01*
X126564Y52703D01*
X127336Y53476D01*
X127883Y54422D01*
X128165Y55477D01*
Y55524D01*
D02*
G37*
G36*
X123516D02*
X119866D01*
Y55477D01*
X120149Y54422D01*
X120695Y53476D01*
X121468Y52703D01*
X122414Y52157D01*
X123469Y51874D01*
X123516D01*
Y55524D01*
D02*
G37*
G36*
X80921Y55524D02*
X77272D01*
Y51874D01*
X77318D01*
X78373Y52157D01*
X79320Y52703D01*
X80092Y53476D01*
X80638Y54422D01*
X80921Y55477D01*
Y55524D01*
D02*
G37*
G36*
X76272D02*
X72622D01*
Y55477D01*
X72905Y54422D01*
X73451Y53476D01*
X74224Y52703D01*
X75170Y52157D01*
X76225Y51874D01*
X76272D01*
Y55524D01*
D02*
G37*
G36*
X33677Y55524D02*
X30028D01*
Y51874D01*
X30074D01*
X31129Y52157D01*
X32076Y52703D01*
X32848Y53476D01*
X33394Y54422D01*
X33677Y55477D01*
Y55524D01*
D02*
G37*
G36*
X29028D02*
X25378D01*
Y55477D01*
X25661Y54422D01*
X26207Y53476D01*
X26980Y52703D01*
X27926Y52157D01*
X28981Y51874D01*
X29028D01*
Y55524D01*
D02*
G37*
G36*
X168486Y36433D02*
X167823D01*
Y22153D01*
X182102D01*
Y22817D01*
X181738Y25114D01*
X181020Y27327D01*
X179963Y29400D01*
X178596Y31282D01*
X176951Y32927D01*
X175069Y34294D01*
X172996Y35350D01*
X170784Y36069D01*
X168486Y36433D01*
D02*
G37*
G36*
X166823D02*
X166160D01*
X163862Y36069D01*
X161650Y35350D01*
X159577Y34294D01*
X157695Y32927D01*
X156050Y31282D01*
X154682Y29400D01*
X153626Y27327D01*
X152907Y25114D01*
X152543Y22817D01*
Y22153D01*
X166823D01*
Y36433D01*
D02*
G37*
G36*
X22817D02*
X22153D01*
Y22153D01*
X36433D01*
Y22817D01*
X36069Y25114D01*
X35350Y27327D01*
X34294Y29400D01*
X32927Y31282D01*
X31282Y32927D01*
X29400Y34294D01*
X27327Y35350D01*
X25114Y36069D01*
X22817Y36433D01*
D02*
G37*
G36*
X21154D02*
X20490D01*
X18193Y36069D01*
X15980Y35350D01*
X13907Y34294D01*
X12025Y32927D01*
X10380Y31282D01*
X9013Y29400D01*
X7957Y27327D01*
X7238Y25114D01*
X6874Y22817D01*
Y22153D01*
X21154D01*
Y36433D01*
D02*
G37*
G36*
X166823Y21154D02*
X152543D01*
Y20490D01*
X152907Y18193D01*
X153626Y15980D01*
X154682Y13907D01*
X156050Y12025D01*
X157695Y10380D01*
X159577Y9013D01*
X161650Y7957D01*
X163862Y7238D01*
X166160Y6874D01*
X166823D01*
Y21154D01*
D02*
G37*
G36*
X36433D02*
X22153D01*
Y6874D01*
X22817D01*
X25114Y7238D01*
X27327Y7957D01*
X29400Y9013D01*
X31282Y10380D01*
X32927Y12025D01*
X34294Y13907D01*
X35350Y15980D01*
X36069Y18193D01*
X36433Y20490D01*
Y21154D01*
D02*
G37*
%LPD*%
D16*
X32549Y144173D02*
D03*
X42549D02*
D03*
X52549D02*
D03*
X62549D02*
D03*
X72549D02*
D03*
X82549D02*
D03*
X92549D02*
D03*
X102549D02*
D03*
X112549D02*
D03*
X122549D02*
D03*
X132549D02*
D03*
X142549D02*
D03*
X152549D02*
D03*
X162549D02*
D03*
X172549D02*
D03*
Y84173D02*
D03*
X162549D02*
D03*
X152549D02*
D03*
X142549D02*
D03*
X132549D02*
D03*
X122549D02*
D03*
X112549D02*
D03*
X102549D02*
D03*
X92549D02*
D03*
X82549D02*
D03*
X72549D02*
D03*
X62549D02*
D03*
X52549D02*
D03*
X42549D02*
D03*
D17*
X32549D02*
D03*
D26*
X57498Y52671D02*
Y86121D01*
X62549Y91172D02*
Y144173D01*
X85588Y12791D02*
Y36422D01*
Y10822D02*
Y12791D01*
X44250Y38391D02*
Y39422D01*
Y12791D02*
Y38391D01*
Y10822D02*
Y12791D01*
X62050Y38391D02*
Y73674D01*
Y12791D02*
Y38391D01*
Y10822D02*
Y12791D01*
X103388Y38391D02*
Y63334D01*
Y12791D02*
Y38391D01*
Y10822D02*
Y12791D01*
X117699Y47656D02*
X131478D01*
X138728Y40406D02*
X142865D01*
X131478Y47656D02*
X138728Y40406D01*
X144727Y38391D02*
Y38544D01*
X142865Y40406D02*
X144727Y38544D01*
Y12791D02*
Y38391D01*
X90551Y114173D02*
X104526Y100198D01*
X84646Y108785D02*
Y124016D01*
X113523Y100198D02*
X127498Y86223D01*
Y82226D02*
Y86223D01*
Y82226D02*
X137823Y71901D01*
X104526Y100198D02*
X113523D01*
X137823Y71901D02*
X146603D01*
X157480Y61024D01*
X112205Y53150D02*
Y64518D01*
X92549Y84173D02*
X112205Y64518D01*
X92549Y84173D02*
Y84221D01*
X76772Y112205D02*
X82549Y106427D01*
Y84173D02*
Y106427D01*
Y84173D02*
X103388Y63334D01*
X84646Y108785D02*
X88517Y104914D01*
Y88253D02*
Y104914D01*
Y88253D02*
X92549Y84221D01*
X126927Y12791D02*
Y38391D01*
X72549Y84173D02*
Y96529D01*
X62050Y73674D02*
X72549Y84173D01*
X44250Y39422D02*
X57498Y52671D01*
X112205Y53150D02*
X117699Y47656D01*
X57498Y86121D02*
X62549Y91172D01*
X68898Y100180D02*
X72549Y96529D01*
X68898Y100180D02*
Y100394D01*
D27*
X76772Y112205D02*
D03*
X33465D02*
D03*
X137795Y100394D02*
D03*
X94488D02*
D03*
X145669Y112205D02*
D03*
X102362D02*
D03*
X153543Y124016D02*
D03*
X110236D02*
D03*
X41339D02*
D03*
X84646D02*
D03*
X25591Y100394D02*
D03*
X68898D02*
D03*
D28*
X76772Y66024D02*
D03*
Y56024D02*
D03*
X109173Y161417D02*
D03*
X67835D02*
D03*
X29528Y56024D02*
D03*
Y66024D02*
D03*
X124016Y56024D02*
D03*
Y66024D02*
D03*
D29*
X85588Y12791D02*
D03*
X103388D02*
D03*
X85588Y38391D02*
D03*
X103388D02*
D03*
X126927Y12791D02*
D03*
X144727D02*
D03*
X126927Y38391D02*
D03*
X144727D02*
D03*
X44250Y12791D02*
D03*
X62050D02*
D03*
X44250Y38391D02*
D03*
X62050D02*
D03*
D30*
X21654Y167323D02*
D03*
X167323D02*
D03*
Y21654D02*
D03*
X21654D02*
D03*
D31*
X147480Y61024D02*
D03*
X157480D02*
D03*
D32*
X167480D02*
D03*
D33*
X119173Y161417D02*
D03*
X77835D02*
D03*
D34*
X62992Y133858D02*
D03*
X90551Y114173D02*
D03*
X57087Y62992D02*
D03*
M02*
