G04*
G04 #@! TF.GenerationSoftware,Altium Limited,Altium Designer,23.6.0 (18)*
G04*
G04 Layer_Color=8388736*
%FSLAX25Y25*%
%MOIN*%
G70*
G04*
G04 #@! TF.SameCoordinates,54EF131F-FBDF-42A5-9582-CEBE5E936E37*
G04*
G04*
G04 #@! TF.FilePolarity,Negative*
G04*
G01*
G75*
%ADD16C,0.05567*%
%ADD17R,0.05567X0.05567*%
%ADD18C,0.05524*%
%ADD19C,0.07099*%
%ADD20O,0.06800X0.12800*%
%ADD21C,0.28359*%
%ADD22C,0.06194*%
%ADD23R,0.06194X0.06194*%
%ADD24R,0.07099X0.07099*%
%ADD25C,0.04737*%
D16*
X32549Y144173D02*
D03*
X42549D02*
D03*
X52549D02*
D03*
X62549D02*
D03*
X72549D02*
D03*
X82549D02*
D03*
X92549D02*
D03*
X102549D02*
D03*
X112549D02*
D03*
X122549D02*
D03*
X132549D02*
D03*
X142549D02*
D03*
X152549D02*
D03*
X162549D02*
D03*
X172549D02*
D03*
Y84173D02*
D03*
X162549D02*
D03*
X152549D02*
D03*
X142549D02*
D03*
X132549D02*
D03*
X122549D02*
D03*
X112549D02*
D03*
X102549D02*
D03*
X92549D02*
D03*
X82549D02*
D03*
X72549D02*
D03*
X62549D02*
D03*
X52549D02*
D03*
X42549D02*
D03*
D17*
X32549D02*
D03*
D18*
X76772Y112205D02*
D03*
X33465D02*
D03*
X137795Y100394D02*
D03*
X94488D02*
D03*
X145669Y112205D02*
D03*
X102362D02*
D03*
X153543Y124016D02*
D03*
X110236D02*
D03*
X41339D02*
D03*
X84646D02*
D03*
X25591Y100394D02*
D03*
X68898D02*
D03*
D19*
X76772Y66024D02*
D03*
Y56024D02*
D03*
X109173Y161417D02*
D03*
X67835D02*
D03*
X29528Y56024D02*
D03*
Y66024D02*
D03*
X124016Y56024D02*
D03*
Y66024D02*
D03*
D20*
X85588Y12791D02*
D03*
X103388D02*
D03*
X85588Y38391D02*
D03*
X103388D02*
D03*
X126927Y12791D02*
D03*
X144727D02*
D03*
X126927Y38391D02*
D03*
X144727D02*
D03*
X44250Y12791D02*
D03*
X62050D02*
D03*
X44250Y38391D02*
D03*
X62050D02*
D03*
D21*
X21654Y167323D02*
D03*
X167323D02*
D03*
Y21654D02*
D03*
X21654D02*
D03*
D22*
X147480Y61024D02*
D03*
X157480D02*
D03*
D23*
X167480D02*
D03*
D24*
X119173Y161417D02*
D03*
X77835D02*
D03*
D25*
X62992Y133858D02*
D03*
X90551Y114173D02*
D03*
X57087Y62992D02*
D03*
M02*
