M48
;Layer_Color=9474304
;FILE_FORMAT=2:5
INCH,LZ
;TYPE=PLATED
T1F00S00C0.02800
T2F00S00C0.03150
T3F00S00C0.03598
T4F00S00C0.03937
T5F00S00C0.04016
T6F00S00C0.04331
T7F00S00C0.11811
%
T01
X0149606Y0064961
T02
X0025591Y0094488
Y0106299
Y011811
X0068898
Y0106299
Y0094488
X0098425
X0106299Y0106299
X0114173Y011811
X015748
X0149606Y0106299
X0141732Y0094488
T03
X0031417Y0076772
X0041417
X0051417
X0061417
X0071417
X0081417
Y0136772
X0071417
X0061417
X0051417
X0041417
X0031417
X0091417
X0101417
X0111417
X0121417
X0131417
X0141417
X0151417
X0161417
X0171417
Y0076772
X0161417
X0151417
X0141417
X0131417
X0121417
X0111417
X0101417
X0091417
T04
X005315Y0024528
Y0034528
X009252
Y0024528
X013189
Y0034528
T05
X0155354Y005315
X0165354
X0175354
T06
X0020591Y005315
X0030591
X0046181
X0056181
X0071772
X0081772
X0099331
X0109331
X012689
X013689
T07
X0021654Y0021654
X0167323
Y0167323
X0021654
M30
