M48
;Layer_Color=9474304
;FILE_FORMAT=2:5
INCH,LZ
;TYPE=PLATED
T1F00S00C0.01181
T2F00S00C0.02362
T3F00S00C0.03150
T4F00S00C0.03598
T5F00S00C0.03937
T6F00S00C0.04000
T7F00S00C0.04016
T8F00S00C0.04331
T9F00S00C0.11811
%
T01
X0057087Y0062992
X0090551Y0114173
T02
X0062992Y0133858
T03
X0025591Y0100394
X0033465Y0112205
X0041339Y0124016
X0084646
X0076772Y0112205
X0068898Y0100394
X0094488
X0102362Y0112205
X0110236Y0124016
X0153543
X0145669Y0112205
X0137795Y0100394
T04
X0032549Y0084173
X0042549
X0052549
X0062549
X0072549
X0082549
Y0144173
X0072549
X0062549
X0052549
X0042549
X0032549
X0092549
X0102549
X0112549
X0122549
X0132549
X0142549
X0152549
X0162549
X0172549
Y0084173
X0162549
X0152549
X0142549
X0132549
X0122549
X0112549
X0102549
X0092549
T05
X0029528Y0056024
Y0066024
X0076772
Y0056024
X0124016
Y0066024
T06
X004425Y0012791
X006205
X0085588
Y0038391
X006205
X004425
X0103388
X0126927
X0144727
Y0012791
X0126927
X0103388
T07
X014748Y0061024
X015748
X016748
T08
X0067835Y0161417
X0077835
X0109173
X0119173
T09
X0021654Y0021654
X0167323
Y0167323
X0021654
M30
